<svg xmlns="http://www.w3.org/2000/svg" viewBox="0 0 513.86 103.28"><defs><style>.cls-1,.cls-2{fill:#83bca9;}.cls-2{font-size:72px;font-family:Candara;}</style></defs><title>shyhi_logo</title><g id="Layer_2" data-name="Layer 2"><g id="Layer_1-2" data-name="Layer 1"><path class="cls-1" d="M7.2,103.28C-2.1,93.94-2.21,89.9,5.81,80c1.7-2.11,2.55-5.14,3.12-7.89,2.6-12.49,7.6-23.72,16.05-33.42,1.7-2,4-5.86,3.28-7C26.4,28.93,23.09,27,20,25.34c-1.54-.81-3.9.12-5.78-.28a12.26,12.26,0,0,1-9.89-12.9A13.06,13.06,0,0,1,16.43,0,12.84,12.84,0,0,1,29.24,10.2c.34,1.58.1,3.29.32,4.91,1.17,8.7,7.21,12,15.21,8.18q30.06-14.35,59.92.28c7.06,3.46,13.35.24,14.74-7.6.22-1.27-.1-2.64.08-3.94,1-7.37,6.45-12.33,13.17-12a13.09,13.09,0,0,1,12.11,12.17c.3,7.34-4.88,13.41-12.8,13.21-4.61-.11-7.32,1.5-10.2,4.42-2.38,2.42-2.33,4.28,0,6.65,10.54,10.68,16.43,23.64,18.64,38.41a10,10,0,0,0,2,4.33c9,12,8.93,13.89-.63,24.08Zm67-25.68c16.44,0,32.87-.17,49.31.09,5.85.1,7.8-2,6.11-7.52-.57-1.88-.88-3.83-1.5-5.69-9-26.86-37.25-43.3-64.95-37.22-22.54,4.94-37,19.07-43.33,41.18-2.39,8.35-1.51,9.08,7,9.13C42.6,77.67,58.37,77.6,74.15,77.6Zm1.36,10.17c-18.11,0-36.21-.15-54.32.12-3.71.06-9.13-2.63-10.25,3.78-.07.41,6.54,2.86,10.06,2.88,35.55.23,71.1.16,106.66.16,1.64,0,3.49.42,4.89-.17,2.13-.91,4-2.54,5.92-3.87-1.89-1-3.7-2.3-5.7-2.75-2.2-.49-4.59-.16-6.89-.16Zm-55.07-75c-1.84-1-2.88-2-3.79-1.88S15,12.27,14.25,13c.87.74,1.7,2,2.64,2.06S18.7,14,20.44,12.79Zm115.37.37c-1.63-1.16-2.53-2.31-3.31-2.23-1,.09-1.91,1.17-2.85,1.83.75.82,1.41,2.18,2.26,2.31S133.89,14.17,135.81,13.16Z"/><path class="cls-1" d="M59.05,61.12c-.18,1.41,0,3.58-.8,5.22s-2.63,3.3-4.07,3.36S50.3,68,50,66.69c-.82-3.43-1.38-7.21-.71-10.58.46-2.27,3.2-4.08,4.92-6.09,1.53,1.89,3.37,3.61,4.48,5.71C59.36,57.05,58.94,58.94,59.05,61.12Z"/><path class="cls-1" d="M100.27,60.71c-.26,1.63-.16,3.76-1,5.43s-2.79,3.76-3.85,3.55C93.61,69.34,91,67.57,90.68,66a25.59,25.59,0,0,1-.16-10.67c.44-2,3-3.59,4.66-5.37,1.55,1.85,3.4,3.53,4.54,5.6C100.45,56.85,100.11,58.74,100.27,60.71Z"/><text class="cls-2" transform="translate(208.28 77.84)">shyhi chat</text></g></g></svg>